<?xml version="1.0" encoding="UTF-8"?>
<svg id="_Слой_2" data-name=" Слой 2" xmlns="http://www.w3.org/2000/svg" viewBox="0 0 1093.3 371.6">
  <defs>
    <style>
      .cls-1, .cls-2 {
        fill-rule: evenodd;
      }

      .cls-2 {
        fill: #e78200;
      }
    </style>
  </defs>
  <path class="cls-2" d="M36.9,187.1h0c1.9-2.4,24.8-9.5,29.8-11.1,5.8-2,19.6-4.4,26.1-4.4,17.3,0,30.7,8.5,42.3,18.3,1.9,1.6,3.6,3,5.4,4.5l21.8,19c14.3,13.3,35.1,28,52.2,38.8,1.4.9,1.8,1.3,3.2,2,1,.5,1.9.9,3,1.6,3.6,2.2,9.2,5.2,13.4,6.9,30.5,12.6,51.6,12.6,85.5,5,11.9-2.7,20.7-5.7,31.6-8.6,7.4-1.9,23.1-7.9,30.1-10.2l29.5-11.4c18-8,37.8-15.7,54.4-26.1,8.4-5.3,15.2-11.4,19.7-20.6,3.7-.7,14.8-.2,19.1,0,5.7.2,11.5,1.1,17.3,1.2,5,.1,12.1,1.1,16.8,2,5.4,1,10.4,1.7,15.6,3.2,15.7,4.5,15.4,10.2,11,20.9-1.8,4.3-4,8.5-6.1,12.6-8.4,16.4-19.4,50.1-26,68.2-3.3,9-7.6,21-4.4,31.2,3.4,11.1,18,15.8,19.3,17.8-4.7.5-10.2.6-14.9.8-17.7.8-21.6,0-37.9-1.5-2.5-.2-4.1-1-6.6-1.3-8.6-1.1-17-4.9-22.6-9.4-6.4-5.1-8.9-12.1-7-23.2,2-11.9,12.1-34.2,16.8-46.9,3-8,17.9-40,17.1-46.2-3.4-.4-8.4,3.4-11,5-3.4,2.1-6.1,3.9-9.4,6-21,13.3-46.2,24.2-69.7,32.5-6.8,2.4-23.5,8.5-29.4,9.9-3.5.8-8.3,2.3-12,3.5-6.7,2.2-13.8,3.1-19.1,4.8-10.2,3.1-48.7,9.1-60.3,9.5-10.5.3-19.6,1.2-30.5,1-18.5-.3-25.4-2.8-41.3-5.8-6-1.1-24.5-7.2-29.8-9.4-8.6-3.6-18.4-7.8-26.4-12.5-20.9-12.3-17.6-11.5-31.9-23-6.4-5.1-5.7-1.5-13.6,10.6-9.1,13.9-33.5,51.5-39,63.2-12.6,27,6.1,19.3,9.2,23.6-8.2,3.4-72.6,17.1-77.5,10.8-5-8.2,36.2-62.3,41.5-68.8l24.1-31.2c4.3-5.8,8-10.2,12.2-15.5,14.1-18.3,13.2-15.9,5.4-21.5-10.7-7.7-14.5-13.9-30.7-20.8-3.1-1.3-4.4-1.6-7.9-2.5-2.5-.7-6-1-8.1-2.3h0Z"/>
  <path class="cls-1" d="M215.3,59.3c-11.8,1.8-18.5,13.5-15.9,27.3,1.5,8.2,5.1,16.4,12.3,20.4,11.4,6.4,27.6-3.2,24.7-25.7-1.4-10.6-9.1-23.9-21.1-22.1h0Z"/>
  <path class="cls-1" d="M366.8,159.8c34.8,0,61.3,32,78.1,19.6,8.2-6.1,5.2-17.4-1.8-22.8-3.2-2.4-18.6-7.7-23.9-9.8-3.8-1.5-8.4-3.1-12.3-4.5-4.4-1.7-8.3-3.3-12.5-4.8-9.7-3.6-13.9-7.5-26.9-5.5-5.1.8-10.1,1.4-15.2,1.8-8.3.7-8.3,1.3-18.8,1.3s-4.6-.2-4-5.1c1.1-8.7,8.2-26.6,12-34.8,3.6-7.5,4.4-9.4,11.7-9.3,11,0,42.5,16,51.6,15.2,10-.9,16.8-20.3,2.9-26.1-9-3.8-33.7-8.9-44.2-12l-9.5-1.9c-15.5-4.2-22.4-6.1-29.7,8-5.6,10.7-14.4,35.3-19.6,47.5-4,9.2-24.9-8.1-28.6-11.3-12.1-10.4-10.3-16.9-3.3-31.9,3-6.4,5.1-10.6,4.1-18.9-.6-5.2-4.9-13-6.9-17.1-5.1-10.4-16.5-49.2-29.4-33.6-4.6,5.5-1.9,11.9.9,17.5,11.7,24,17.5,30.8,7.9,53.7-17,40.4-25.3,36.1-35.1,84.5-3.8,18.7-8.1,18.9,2.6,36.4,3,5,16,26.1,18.6,29.2,4.6,5.3,12.5,5.7,15.3-.9,2.9-6.8-1.4-12.4-4.1-17.2-14.4-25-22.1-18.1-10.2-50.1,1-2.8,2-5.9,3.4-8.4,1.6-3,3-4.6,7.3-4.2,3.4.3,12.3,5.8,15.9,7.9,11,6.2,19.7,10,29.4,18.5,2.5,2.1,3.8,3.2,7.2,4.6,7.5,3,18.7-8.3,35.7-10.5l31.4-4.6h0s0,0,0,0Z"/>
  <g>
    <path d="M587.7,342.1c-6.1,0-11.6-1.4-16.3-4.1-4.8-2.8-8.5-6.6-11.3-11.5-2.8-4.9-4.1-10.6-4.1-17.1s1.3-12.1,3.9-17c2.6-4.9,6.2-8.7,10.8-11.4,4.6-2.7,9.8-4.1,15.7-4.1s11,1.6,15.3,4.7c4.3,3.1,7.6,7.5,9.9,13.2,2.3,5.7,3.5,12.4,3.5,20.2h-47.4v-11.9h39.7l-5.9,4.4c-.2-3.7-1-6.9-2.3-9.5-1.3-2.7-3-4.7-5.1-6-2.2-1.4-4.7-2.1-7.7-2.1s-5.9.8-8.2,2.3-4.1,3.7-5.5,6.4c-1.3,2.7-2,5.9-2,9.5s.8,8.1,2.5,11.2c1.6,3.1,4,5.5,7,7.1,3,1.7,6.7,2.5,11,2.5s7.9-.7,11.9-2.1c4-1.4,7.5-3.3,10.7-5.8v11.8c-3.3,2.9-7.3,5.2-11.8,6.8-4.5,1.6-9.3,2.5-14.2,2.5Z"/>
    <path d="M667.7,278.5v13.4h-34.6l6.7-8.1v56.6h-14.5v-61.9h42.4Z"/>
    <path d="M694.2,300.6c7.8-.3,13.8.4,18,2,4.2,1.6,6.6,2.9,7,3.8.4.9.6,5.9.6,14.9s-.6,3.9-1.8,6.3c-1.2,2.4-2.9,4.7-5.2,6.9-2.2,2.2-4.9,4-8.1,5.5-3.2,1.5-6.7,2.2-10.5,2.2s-8-.8-11.4-2.5-6-4.1-8-7.1c-1.9-3.1-2.9-6.8-2.9-11.1s1-8,3-11c2-3.1,4.6-5.4,8-7,3.4-1.6,7.1-2.5,11.3-2.7ZM715.1,305.5c0-4.8-1.5-8.5-4.4-11.2-2.9-2.7-7.4-4-13.4-4s-7,.5-10.6,1.5c-3.6,1-7.1,2.6-10.4,4.8v-13.1c3.8-2.4,7.7-4.1,11.7-5.2,4-1.1,8.2-1.6,12.6-1.6s11,1.1,15.2,3.2c4.3,2.1,7.6,5.3,10,9.5,2.4,4.2,3.6,9.3,3.6,15.4v35.4h-14.3v-34.9ZM702.1,311.8c-6.2,0-10.5.8-12.8,2.5-2.3,1.7-3.5,3.8-3.5,6.4s1.1,4.9,3.5,6.5c2.3,1.7,5.5,2.5,9.5,2.5s8.7-1.6,11.8-4.7c3.1-3.2,4.6-6.8,4.6-11-2.5-1.5-6.8-2.3-13-2.3Z"/>
    <path d="M736.8,278.5h56v13.4h-56v-13.4ZM757.5,284.5h14.5v55.9h-14.5v-55.9Z"/>
    <path d="M800.8,278.5h14.5v20.1l-.6,2.4v14.4l.6,4.4v38.7h-14.5v-79.9ZM810.3,309.5c1-6.6,2.8-12.4,5.4-17.2,2.6-4.9,5.8-8.6,9.7-11.3,3.9-2.7,8.3-4,13.1-4s9.5,1.4,13.4,4.1c3.9,2.7,6.9,6.5,9,11.4,2.1,4.9,3.2,10.6,3.2,17.1s-1.1,12.2-3.2,17.1c-2.2,4.9-5.2,8.7-9,11.4-3.9,2.7-8.3,4.1-13.4,4.1s-9.2-1.4-13.1-4.1c-3.9-2.7-7.1-6.5-9.7-11.4-2.6-4.9-4.4-10.6-5.5-17.1ZM849.5,309.5c0-3.7-.7-7-2-9.9-1.3-2.9-3.1-5.1-5.3-6.7-2.2-1.6-4.8-2.4-7.7-2.4s-5.6.8-8.2,2.4c-2.6,1.6-4.8,3.8-6.8,6.7-2,2.9-3.5,6.2-4.7,9.9,1.1,3.7,2.7,7,4.7,9.9,2,2.9,4.2,5.1,6.8,6.7,2.6,1.6,5.3,2.4,8.2,2.4s5.5-.8,7.7-2.4c2.2-1.6,4-3.8,5.3-6.7,1.3-2.9,2-6.2,2-9.9Z"/>
    <path d="M893,300.6c7.8-.3,13.8.4,18,2,4.2,1.6,6.6,2.9,7,3.8.4.9.6,5.9.6,14.9s-.6,3.9-1.8,6.3c-1.2,2.4-2.9,4.7-5.2,6.9-2.2,2.2-4.9,4-8.1,5.5-3.2,1.5-6.7,2.2-10.5,2.2s-8-.8-11.4-2.5-6-4.1-8-7.1c-1.9-3.1-2.9-6.8-2.9-11.1s1-8,3-11c2-3.1,4.6-5.4,8-7,3.4-1.6,7.1-2.5,11.3-2.7ZM913.9,305.5c0-4.8-1.5-8.5-4.4-11.2-2.9-2.7-7.4-4-13.4-4s-7,.5-10.6,1.5c-3.6,1-7.1,2.6-10.4,4.8v-13.1c3.8-2.4,7.7-4.1,11.7-5.2,4-1.1,8.2-1.6,12.6-1.6s11,1.1,15.2,3.2c4.3,2.1,7.6,5.3,10,9.5,2.4,4.2,3.6,9.3,3.6,15.4v35.4h-14.3v-34.9ZM900.8,311.8c-6.2,0-10.5.8-12.8,2.5-2.3,1.7-3.5,3.8-3.5,6.4s1.1,4.9,3.5,6.5c2.3,1.7,5.5,2.5,9.5,2.5s8.7-1.6,11.8-4.7c3.1-3.2,4.6-6.8,4.6-11-2.5-1.5-6.8-2.3-13-2.3Z"/>
    <path d="M940.1,340.4v-61.9h21.7l19.4,53h-4.8l19.2-53h21.7v61.9h-13.6v-55.7h3l-21.1,55.7h-13.7l-21.2-55.5,3.1-.2v55.7h-13.6Z"/>
    <path d="M1087.5,278.5v61.9h-14.5v-56.7l6.7,8h-41.9l6.7-8v56.7h-14.5v-61.9h57.5Z"/>
  </g>
</svg>