<?xml version="1.0" encoding="utf-8"?>
<!-- Generator: Adobe Illustrator 29.0.1, SVG Export Plug-In . SVG Version: 9.03 Build 54978)  -->
<!DOCTYPE svg PUBLIC "-//W3C//DTD SVG 1.1//EN" "http://www.w3.org/Graphics/SVG/1.1/DTD/svg11.dtd" [
	<!ENTITY ns_extend "http://ns.adobe.com/Extensibility/1.0/">
	<!ENTITY ns_ai "http://ns.adobe.com/AdobeIllustrator/10.0/">
	<!ENTITY ns_graphs "http://ns.adobe.com/Graphs/1.0/">
	<!ENTITY ns_vars "http://ns.adobe.com/Variables/1.0/">
	<!ENTITY ns_imrep "http://ns.adobe.com/ImageReplacement/1.0/">
	<!ENTITY ns_sfw "http://ns.adobe.com/SaveForWeb/1.0/">
	<!ENTITY ns_custom "http://ns.adobe.com/GenericCustomNamespace/1.0/">
	<!ENTITY ns_adobe_xpath "http://ns.adobe.com/XPath/1.0/">
]>
<svg version="1.1" id="_Слой_2" xmlns:x="&ns_extend;" xmlns:i="&ns_ai;" xmlns:graph="&ns_graphs;"
	 xmlns="http://www.w3.org/2000/svg" xmlns:xlink="http://www.w3.org/1999/xlink" x="0px" y="0px" viewBox="0 0 1165 433"
	 style="enable-background:new 0 0 1165 433;" xml:space="preserve">
<style type="text/css">
	.st0{fill-rule:evenodd;clip-rule:evenodd;fill:#E78200;}
	.st1{fill-rule:evenodd;clip-rule:evenodd;}
	.st2{display:none;enable-background:new    ;}
	.st3{display:inline;}
</style>
<metadata><?xpacket begin="﻿" id="W5M0MpCehiHzreSzNTczkc9d"?>
<x:xmpmeta xmlns:x="adobe:ns:meta/" x:xmptk="Adobe XMP Core 9.1-c002 79.a6a6396, 2024/03/12-07:48:23        ">
   <rdf:RDF xmlns:rdf="http://www.w3.org/1999/02/22-rdf-syntax-ns#">
      <rdf:Description rdf:about=""
            xmlns:xmp="http://ns.adobe.com/xap/1.0/"
            xmlns:xmpGImg="http://ns.adobe.com/xap/1.0/g/img/"
            xmlns:xmpTPg="http://ns.adobe.com/xap/1.0/t/pg/"
            xmlns:stDim="http://ns.adobe.com/xap/1.0/sType/Dimensions#"
            xmlns:xmpG="http://ns.adobe.com/xap/1.0/g/"
            xmlns:illustrator="http://ns.adobe.com/illustrator/1.0/"
            xmlns:dc="http://purl.org/dc/elements/1.1/"
            xmlns:xmpMM="http://ns.adobe.com/xap/1.0/mm/"
            xmlns:stRef="http://ns.adobe.com/xap/1.0/sType/ResourceRef#"
            xmlns:stEvt="http://ns.adobe.com/xap/1.0/sType/ResourceEvent#"
            xmlns:pdf="http://ns.adobe.com/pdf/1.3/">
         <xmp:CreatorTool>Adobe Illustrator 29.0 (Macintosh)</xmp:CreatorTool>
         <xmp:CreateDate>2025-08-17T17:52:44+03:00</xmp:CreateDate>
         <xmp:ModifyDate>2025-08-17T17:52:44+03:00</xmp:ModifyDate>
         <xmp:MetadataDate>2025-08-17T17:52:44+03:00</xmp:MetadataDate>
         <xmp:Thumbnails>
            <rdf:Alt>
               <rdf:li rdf:parseType="Resource">
                  <xmpGImg:width>256</xmpGImg:width>
                  <xmpGImg:height>88</xmpGImg:height>
                  <xmpGImg:format>JPEG</xmpGImg:format>
                  <xmpGImg:image>/9j/4AAQSkZJRgABAgEASABIAAD/7QAsUGhvdG9zaG9wIDMuMAA4QklNA+0AAAAAABAASAAAAAEA&#xA;AQBIAAAAAQAB/+4ADkFkb2JlAGTAAAAAAf/bAIQABgQEBAUEBgUFBgkGBQYJCwgGBggLDAoKCwoK&#xA;DBAMDAwMDAwQDA4PEA8ODBMTFBQTExwbGxscHx8fHx8fHx8fHwEHBwcNDA0YEBAYGhURFRofHx8f&#xA;Hx8fHx8fHx8fHx8fHx8fHx8fHx8fHx8fHx8fHx8fHx8fHx8fHx8fHx8fHx8f/8AAEQgAWAEAAwER&#xA;AAIRAQMRAf/EAaIAAAAHAQEBAQEAAAAAAAAAAAQFAwIGAQAHCAkKCwEAAgIDAQEBAQEAAAAAAAAA&#xA;AQACAwQFBgcICQoLEAACAQMDAgQCBgcDBAIGAnMBAgMRBAAFIRIxQVEGE2EicYEUMpGhBxWxQiPB&#xA;UtHhMxZi8CRygvElQzRTkqKyY3PCNUQnk6OzNhdUZHTD0uIIJoMJChgZhJRFRqS0VtNVKBry4/PE&#xA;1OT0ZXWFlaW1xdXl9WZ2hpamtsbW5vY3R1dnd4eXp7fH1+f3OEhYaHiImKi4yNjo+Ck5SVlpeYmZ&#xA;qbnJ2en5KjpKWmp6ipqqusra6voRAAICAQIDBQUEBQYECAMDbQEAAhEDBCESMUEFURNhIgZxgZEy&#xA;obHwFMHR4SNCFVJicvEzJDRDghaSUyWiY7LCB3PSNeJEgxdUkwgJChgZJjZFGidkdFU38qOzwygp&#xA;0+PzhJSktMTU5PRldYWVpbXF1eX1RlZmdoaWprbG1ub2R1dnd4eXp7fH1+f3OEhYaHiImKi4yNjo&#xA;+DlJWWl5iZmpucnZ6fkqOkpaanqKmqq6ytrq+v/aAAwDAQACEQMRAD8A9U4q7FXYq7FXYq7FXYq+&#xA;Mfyc80eYvyz/AD61Dyj5ku5JLbV7x7LUJJnYiS5lbla3nxd5Sy/Ef2X36Yq+zsVdirsVdirsVdir&#xA;sVdirsVdirsVdirsVdirsVdirsVdirsVdirsVdirsVdirsVdirsVdirsVad0RGd2CooJZiaAAbkk&#xA;nFWC+Xvzz/KvzF5kPlzR9fhudVqywx8JUjmZa8lhldFjkIp+y2/auKvnb/nNXT7Gz87+X9VtW9LU&#xA;7qycXBQ8Wpby/uZNu/xsK/5Ptir6f/LPXr/zB+Xvl3WtQUrfX+n289ySOPKRoxycAdA5+IexxVvz&#xA;5+YflTyLow1bzJefVbZ5BDAiq0ksshBPGNFqTsKk9B3xVjnl3/nIn8nNe4LbeZLe1ncgejfh7Mgn&#xA;tymCRn6GOKvQrS8tLyBbi0njuIH+xLEyuh+TKSMVVcVdirsVdirsVdirsVdirsVdirsVdirsVdir&#xA;sVdirsVdirsVdirsVdirsVdirsVYx+aFjqN/+XHmey0wM1/caXeR2yJXmztAwCLTu32Rir85PLk+&#xA;o23mLTJ9OJXUYbuB7QglSJlkUx7ipHxUxVn35o+drD8yfzoF3d3f1fy495b6ZbXLGixaekoRpqno&#xA;G5PL7VxV9/WVpa2dnBZ2kaxWltGkNvEv2VjjUKij2CjFXw//AM5aefW8xfmW+i28vPTPLSfVEUGq&#xA;m6ejXLfMHjGf9TFUfb/84cfmFdeWLPVoNQsl1K5gW4k0i49SKSPmvIRGTiy+oAaEEAA9++KvPNR8&#xA;r/nB+WWoGaW21Ty/Mp/3ttXkWF6Hp68DGJx7csVfdH5Oan5r1T8s9A1DzWrLr1xbs10ZE9N2X1HE&#xA;LugAozwhGO3U4qzLFXYq7FXYq7FXYq7FXYq7FXYq7FXYq7FXYq7FXYq7FXYq7FXYq7FXYq7FXYq7&#xA;FXzD/wA5T6R+XnkvQxd6NoVpa+bfM80sf15FIaOBQDdSolTGjvzVOQUH4mNa4q+ScVezfln/AM5R&#xA;+evJWkHRrmKPXtNijKWCXTsktuafCFlAYtGv8jD2BUYqxr8nNIXzh+cWix6zMrx3F6+oalLOwAl9&#xA;ANdSByevqsnE/PFX3lqX5i+QNMBOoeZdLtOPVZbyBG77BS9SdjiqP0HzN5c8wWpu9C1O11S2UhXl&#xA;tJo5lVjvxbgW4n2OKplirsVdirsVdirsVdirsVdirsVdirsVdirsVdirsVdirsVdirsVdirsVdir&#xA;sVdirsVfFH/OVl9e+aPztsvLGnn1p7SC0022gB2N1eP6v3t68an5Yq9K82/84YeUrvR7dfLOoTaZ&#xA;rNvCiSvcFp7a5kVaNI6n44mdt/gPEdlxV8u+e/y583+RdVGm+ZLBrWR6tbTg84JlU0LRSj4W9x1H&#xA;cDFUu0Hyt5l8wXBt9C0q71SZac0s4JJite7cA3EfPFWd6X/zjR+dmogNH5akt4/5rqe3gI6/sySK&#xA;/b+XFUq1fyF+b35bXSapd6dqOhSxGianauTGpP7P1m2Z4xXwLb4q9B8kf85hfmHoxjt/MUMHmKyW&#xA;gaRwLa7CjbaWMem2380ZJ8cVfXvkjzhpXnHypp3mXSuYsdSjLxpIAHRkYxyI1KiqSIymm22Kp5ir&#xA;sVdirsVdirsVdirsVdirsVdirsVdirsVdirsVdirsVdirDvNx/MBUlk01ovqYrRbYE3HH35g7/6m&#xA;ajXfmxZhXD5c/wAe52ej/LbCd8Xny/HveXXGp6pNJyuLqeSQHcySOxB+k5zMs0ydyfm9BHFADYBO&#xA;tA8+65pUqrJK15Z1+OCZixp/kOalf1e2Zml7Ty4jueKPcXF1HZ+PINhwy8nrWja3p+sWS3dlJzQ7&#xA;Oh2dG/lYdjnVafUQyx4ol5zPglilwyR2XtL4p/Oa31H8uf8AnI638431t9d0y6vIdWtP+LI04pNG&#xA;CdhJGwPHw+E98VfZGha3peu6PZ6xpU63OnX8Sz2069GRxUbHcEdCDuDtiql5h8s+XvMenNpuvafB&#xA;qVizB/QuUEihhsGWu6sK9RviqvpGi6Po1ilhpFlBp9jF/d21tGsUYr1PFABU4qjMVWyRxyxtHIoe&#xA;NwVdGAKspFCCD1BxV5D5u/5xV/KPzHfG9S0uNEnc8pRpMiQxuT/xTJHNEn+wVcVek+UfKmi+UvLl&#xA;j5e0WIw6Zp6FIEdi7fGxkdmY9WZ3Zj7nFUlv/wA0dDtbya2SGa4ETFPWj4cGI68SWFRXNRl7ZxRk&#xA;RRNOzx9lZJRBsC3Q/mp5akajx3MP+U6KR/wrsfwxj21hPMSHw/asuyco7in+k+ZNE1aosLtJnAq0&#xA;W6uB48WAOZ2DV4sv0G3DzabJj+oUmWZLQ7FXYq7FXYq7FXYq7FXYq7FXYq7FXYq7FXYq7FXYq8q/&#xA;NEaGmpxraxgamfivWQ0Wh+zyH856/LrnL9s+EJjh+vr+O96HsrxDDf6On47mEZpXbJhomu6ho16t&#xA;3ZPxbpJGd0df5WGZGn1M8MuKLTnwRyxqT2Ly15s0zXoAYG9K7UVmtWPxL7j+ZffOu0muhnG20u55&#xA;jVaOeE78u9jX52/lba/mN5Jn0kFItXtj9Z0e7eoEdwopxYjfhIvwt9DUJAzMcVIP+cZvJPn3yb5I&#xA;vNG83RLbFb15dNtBLHO0cTovM8omdArSVYLWtak9cVevYq7FXYq7FUh1rzt5f0nkktwJrhf+PeCj&#xA;vXwY/ZX6TmDqO0cWLmbPcHMwaHLk5Ch3lgOredPMfmSb9HadC0MMuwt4KtI4/wAt9tvHoPHNFn7Q&#xA;zag8EBQPQc3cYdDiwDikbI6lI9e8v3OiSwW93IjXUsfqyQoa+mCaKC3c7HMLU6U4SBI+oi/c5en1&#xA;AygmPJK8xXIZ1+VWjyTanNqjVENqpijP80jjf/gV6/MZvOxcBMzPpH73UdrZgICHUvUs6Z592Kux&#xA;V2KuxV2KuxV2KuxV2KuxV2KuxV2KuxV2KpB5x80RaDppdSGvp6raxnx7u3+SuYOv1gwQ/pHk5mi0&#xA;pzT/AKI5vGP9Lvrz9qe6uX+bO7n+JOcf6py75F6j0wj3APWbX8u9I/w7Hp10g+uU9R7xAOaysN+J&#xA;7qOlO/zzqYdlY/BEJfV3+bzs+0p+LxD6e7yee+YfJus6I7NLH69p+zdRAlKf5Q6ofnmg1XZ+TDzF&#xA;x7/xydzptbjy8tpdyTW9xPbzJPBI0U0Z5JIhIYH2IzDjIxNg0XKlESFHk9C8u/mkAq2+uISRsLyI&#xA;f8TQfrX7s3+k7a6ZfmP0h02p7K64/kzmw1vSNQUNZXkU9f2VYchXxU/EPpGbvFqMeT6ZAuoyYJw+&#xA;oEIx3RFLOwVR1Ymg/HLSa5tYFpTf+bvLdiD6+oRch1SM+o1fCiciMxcuuww5yH3/AHORj0eWfKJY&#xA;vqf5s2aArptm8r9BJOQi/PivIn7xmszduRH0Rv3uwxdkSP1mvcxyTVfPXmhjHAJnt22McA9KEezP&#xA;sD/smzXnNqtTsLry2H497mjFp9Puavz3Kc6N+VEzFZNXuQi9Tb2+7fIuRQfQD88zNP2IeeQ/Afrc&#xA;bP2uOUB8SzrTtI0jRrVks4Et4lHKV/2iFFaux3P05u8WDHhj6RQdRlzTyn1Gy8T8w6s+razdX7V4&#xA;yufSU9o12Qf8CM4zVZ/FyGXe9VpsPhwEUuzHb3uvlPSBpWgWloVpNx9Sfx9R/ib7un0Z2+hweFiE&#xA;evX3vI6zN4mQy6JvmW4zsVdirsVdirsVdirsVdirsVdirsVdirsVdiqE1XU7XTLCa+um4wwrU+JP&#xA;ZR7k5VmzRxwMpcg2YsRySERzLw7Xdau9Z1KW+uT8T7RxjoiD7Kj5ZxWp1Es0zKT1unwRxQEQzX8r&#xA;/LVSdcuV2FUslPj0eT/jUfTm57G0f+Vl8P1uq7V1X+THx/U9HzoXRuIBBBFQdiDirHNV8geWtRLO&#xA;bc2szbmS3PDf/VoU/DNfn7Lw5N6o+X4pzsPaGWHWx5sau/yikG9nqIPgk0ZH/DKT+rNbk7CP8Mvm&#xA;HOh2wP4o/JA/8qm8wcv96rTjXrykrT5enlP8h5e+P2/qbv5Xx90vs/WrxflJqbEevqEKKNqoruaf&#xA;I8MnHsOfWQYHtiHSJTS0/KTS0obq+mm9o1WIfj6mZMOw4D6pE/Z+tx59sTPKIH2/qZBYeSvLFiQ0&#xA;VhG7j9uaspr4/GWA+gZn4uzsEOUR8d/vcPJrs0+cvlsnSqqqFUBVGwA2AGZoDiEt4qxb8xtXNh5c&#xA;khQ0mvj6C06hCKyH/gdvpzWdrZ/DwkDnLb9bsOzcPHlvpHd45nIPTp35M0r9J+Y7SBl5Qxt60wPT&#xA;hH8VD8zQfTmb2fg8TNEdOZ+Dia3N4eInrySj/nIv84fNum+a9M/LzydexaVqF8kcmoavM8cQjE7M&#xA;qRiWX4YlCrzd+vTj3r2rybBW8+fmV+UvmDSdQ1Pz1a+efL1/L6ep2sN99eeNdjJRZC0kZAJMbKeJ&#xA;pQgdMVZP+dHmn80L7879I8m+SPMbaVHq2nwy2wZyltzPrSM7FY5W+JI+ynFWT+UPJX/OSnl9Ndvd&#xA;a8z2euzPpVxFolmszyBdRLxtDI4ngt4+IVXBJbv0xV5PrUn5p20c+pt+del3GuwVlbRrXVisbMBy&#xA;aJFUJbc6jiE4ha7VxVnnkzzn+bX5v/lHGnlzWLfRvOWj6qkWpak7PBHc2gt3KmkUU3F3eRaqFA+G&#xA;u3TFXn+n3n/OSN/+Z95+XMPncLrdijPLcvNILUhY1lPFxAZPsuOseKp3+cXmf86fy08s+S7XVfM7&#xA;XGtXNxqcmoXNnKzJPDG1qYY2aSKNvhDsPs98VV/NOif85TX3l24/MeXzA2lJFG2oJ5YtJ5YnhtFH&#xA;OhgVPRdlQcisjM1OvxfDirMvLH5o/mJ59/Il9X8u3VpYeb7O6+oarqVyYYbeKONVkkum9UGNKxOp&#xA;NFO9aDwVeSa/rf5neV7WTX9N/OSw8wX9qwe40q31I3FQG41hgnrDMBWpVV6dAcVZr+aX53ebb/8A&#xA;Inyj5x0S9k0bVdRvmtdS+q/CC8CTJIF5cvgZ4g4FdumKsw/5xf8AzM17zHoevaN5tvHn8weX7om4&#xA;muSquLeQEcXO391JFIGPYEYq8WP58fmVrX5r2lxYa1dW3lXU9ejtbG0SghNstxEvp7g7mKRC/wDr&#xA;YqzPz75h/N3XP+cjNV8heVPNMuj25SF7WN2IgjC6dFcSfZR2+Jix+ZxVJfzKm/5yD/La40J9a89N&#xA;fxavctEiWrsaekULc/UiTqJO2KvZvzG8zHUtTOn27f6FZMQaHZ5Rszf7H7I+nxzlO1tZ4k+AfTH7&#xA;3pOzdLwQ4j9UvuYlAiSTxo7iNHYK0h6KCaE/RmqiASAXZSNB9AaatgljDHYMj2kShIjGwZaKKdRn&#xA;eYeERAh9IeNy8XETLmicsa3Yq7FXYq7FXYq7FXYq7FXYq89/Nu0u3i0+6RC1tD6iSMNwrPxpX58c&#xA;0HbmOREZfwi3ddjziDIdTTzXOcd6zr8pprVNVvI5GAuJIQIAepAargfgc3nYcojJIHnWzqO14kwF&#xA;creL/wDOWPkm7078wdO893OmNq/lm5ihh1OFWkjVZIDwMcksXxR+pGV4P/NX6emefYvdax/zjHdW&#xA;8dv5a8ka7quvXNFtdOa4ljUyH9ktHPM5/wBihr7Yq9E8yW623/OWvkS3SP0Vh0q3jWIkkoEgugFq&#xA;dzSlMVeq/wDORdn5jvPye1+38vpNLfOkXqQ2wJle3EyGdVC/ER6deQHVajFXzF5U8x/kMPy0Gkf4&#xA;QutX/MOa3khQFJJfWu25GOVHilUrGlQSqqGoKb/axV6l/wA4Q/8AKLeZf+Y6H/kziqE8p/8AraXm&#xA;D/jBL/1Bw4qo/wDObySyXPkRIv7131JY69ORNmB+OKu80/8AOWDQ+RtT8s6zoF3Zef8A6vLp17G6&#xA;xraJM6GJ5q8/UGx5hOFK7cqb4qwDWPy988aH/wA40Wd01vcQ22o6y2p6ragMrJaGBYbV5kG/Dkhb&#xA;f+ZcVW+avMP5E6l+Wx0vyR5Pum82LAklxdzJIzWscADXNxJKkrcxxBptx3qQKUxVT81f+sp+Sv8A&#xA;tuXn67jFU9/PQa1+W3nq417RP3Vl560F7S5IqAJHjSO54/5QKxyV8WOKqfm7yR/gyX8ktIlj9O/k&#xA;uReaiO/1m5u7WR1b3jBEf+xxVmVn/wCtx3//ABgX/uixYqiv+czf+mF/5jrj/mRir2aP8rfLSuWd&#xA;7mWprR5Fpv8A6qqc1I7Gw3/Efi7M9q5fJNLPyV5WtCDFp0TMO8tZfp/eFsycfZ2CHKI+O/3uPPXZ&#xA;pc5H7vuTmOOONAkahEXZVUAAfIDMwAAUHFJJ5rsKHYq7FXYq7FXYq7FXYq7FXYq06I6MjqGRhRlY&#xA;VBB7EHARexSDSR3XkXypcsWk09FY13iLxDf2QqPwzCn2bglzj8tvucuGvzR5S/Sh4vy78rRSLJHB&#xA;IkiEMjrNKCCO4IauQHZWAGwD8yzPaWYiifsDImgheAwSKJISvBkk+MMtKUblXl9ObACnBJtBab5c&#xA;8vaXI8um6XaWMslTI9tBFCzE9alFUnChGNa2zTCdokM67LKVBcD2briqpiqCt9D0W2upLy30+2hu&#xA;5dpbiOGNJGH+U4AY4qiYLW2twRBEkQbdgihQT70xVoWtqs5nEKCc9ZQo5nt9qlcVeV/nt+S+qfmT&#xA;eeWp7HUoLAaFJcvKJ0dzIJ2gI48elPQPXxxV6Vd6BoV5exX15ptrc3sH9xdTQxySp/qOyll+g4qj&#xA;mVWUqwDKwoyncEHscVQdpomjWSSpZ2FtbJPX1lhhjjD168goHL6cVVjYWJiWE20RhU1WMovEE9wK&#xA;UxVdNa2swUTQpIE+wHUNT5VG2Kty2ttM6PLEkjx7ozqGKnrsT0xVr6ra+v8AWPRT1z1m4jn0p9ql&#xA;emKtzWttPx9eJJeG681DUPtXFX//2Q==</xmpGImg:image>
               </rdf:li>
            </rdf:Alt>
         </xmp:Thumbnails>
         <xmpTPg:NPages>1</xmpTPg:NPages>
         <xmpTPg:HasVisibleTransparency>False</xmpTPg:HasVisibleTransparency>
         <xmpTPg:HasVisibleOverprint>False</xmpTPg:HasVisibleOverprint>
         <xmpTPg:MaxPageSize rdf:parseType="Resource">
            <stDim:w>1165.000000</stDim:w>
            <stDim:h>433.000000</stDim:h>
            <stDim:unit>Points</stDim:unit>
         </xmpTPg:MaxPageSize>
         <xmpTPg:PlateNames>
            <rdf:Seq>
               <rdf:li>Cyan</rdf:li>
               <rdf:li>Magenta</rdf:li>
               <rdf:li>Yellow</rdf:li>
               <rdf:li>Black</rdf:li>
            </rdf:Seq>
         </xmpTPg:PlateNames>
         <xmpTPg:SwatchGroups>
            <rdf:Seq>
               <rdf:li rdf:parseType="Resource">
                  <xmpG:groupName>Группа образцов по умолчанию</xmpG:groupName>
                  <xmpG:groupType>0</xmpG:groupType>
                  <xmpG:Colorants>
                     <rdf:Seq>
                        <rdf:li rdf:parseType="Resource">
                           <xmpG:swatchName>megatramp_orange</xmpG:swatchName>
                           <xmpG:type>PROCESS</xmpG:type>
                           <xmpG:tint>100.000000</xmpG:tint>
                           <xmpG:mode>RGB</xmpG:mode>
                           <xmpG:red>231</xmpG:red>
                           <xmpG:green>130</xmpG:green>
                           <xmpG:blue>0</xmpG:blue>
                        </rdf:li>
                     </rdf:Seq>
                  </xmpG:Colorants>
               </rdf:li>
            </rdf:Seq>
         </xmpTPg:SwatchGroups>
         <illustrator:CreatorSubTool>Adobe Illustrator</illustrator:CreatorSubTool>
         <dc:format>image/svg+xml</dc:format>
         <dc:title>
            <rdf:Alt>
               <rdf:li xml:lang="x-default">megatramp_logo</rdf:li>
            </rdf:Alt>
         </dc:title>
         <xmpMM:RenditionClass>default</xmpMM:RenditionClass>
         <xmpMM:DocumentID>xmp.did:29753f2d-38a2-4c32-9664-6dc4f525f4dc</xmpMM:DocumentID>
         <xmpMM:InstanceID>xmp.iid:29753f2d-38a2-4c32-9664-6dc4f525f4dc</xmpMM:InstanceID>
         <xmpMM:OriginalDocumentID>uuid:170d8603-88b0-1a4d-bf96-5aa652d8e126</xmpMM:OriginalDocumentID>
         <xmpMM:DerivedFrom rdf:parseType="Resource">
            <stRef:instanceID>xmp.iid:a80ee3b1-d873-4bb1-ad55-18ae954444dc</stRef:instanceID>
            <stRef:documentID>xmp.did:01966a50-676a-4f22-a153-0b293433b0f4</stRef:documentID>
            <stRef:originalDocumentID>uuid:170d8603-88b0-1a4d-bf96-5aa652d8e126</stRef:originalDocumentID>
            <stRef:renditionClass>default</stRef:renditionClass>
         </xmpMM:DerivedFrom>
         <xmpMM:History>
            <rdf:Seq>
               <rdf:li rdf:parseType="Resource">
                  <stEvt:action>saved</stEvt:action>
                  <stEvt:instanceID>xmp.iid:07fb983c-3e60-4fa8-aea7-1a1f0bc0043e</stEvt:instanceID>
                  <stEvt:when>2025-08-17T16:34:55+03:00</stEvt:when>
                  <stEvt:softwareAgent>Adobe Illustrator 29.0 (Macintosh)</stEvt:softwareAgent>
                  <stEvt:changed>/</stEvt:changed>
               </rdf:li>
               <rdf:li rdf:parseType="Resource">
                  <stEvt:action>saved</stEvt:action>
                  <stEvt:instanceID>xmp.iid:29753f2d-38a2-4c32-9664-6dc4f525f4dc</stEvt:instanceID>
                  <stEvt:when>2025-08-17T17:52:44+03:00</stEvt:when>
                  <stEvt:softwareAgent>Adobe Illustrator 29.0 (Macintosh)</stEvt:softwareAgent>
                  <stEvt:changed>/</stEvt:changed>
               </rdf:li>
            </rdf:Seq>
         </xmpMM:History>
         <pdf:Producer>Adobe PDF library 17.00</pdf:Producer>
      </rdf:Description>
   </rdf:RDF>
</x:xmpmeta>
                                                                                                    
                                                                                                    
                                                                                                    
                                                                                                    
                                                                                                    
                                                                                                    
                                                                                                    
                                                                                                    
                                                                                                    
                                                                                                    
                                                                                                    
                                                                                                    
                                                                                                    
                                                                                                    
                                                                                                    
                                                                                                    
                                                                                                    
                                                                                                    
                                                                                                    
                                                                                                    
                           
<?xpacket end="w"?>
	</metadata>
<path class="st0" d="M75.2,221.4L75.2,221.4L75.2,221.4c2-2.4,24.8-9.5,29.8-11.1c5.8-2,19.6-4.4,26.1-4.4
	c17.3,0,30.7,8.5,42.3,18.3c1.9,1.6,3.6,3,5.4,4.5l21.8,19c14.3,13.3,35.1,28,52.2,38.8c1.4,0.9,1.8,1.3,3.2,2c1,0.5,1.9,0.9,3,1.6
	c3.6,2.2,9.2,5.2,13.4,6.9c30.5,12.6,51.6,12.6,85.5,5c11.9-2.7,20.7-5.7,31.6-8.6c7.4-1.9,23.1-7.9,30.1-10.2l29.5-11.4
	c18-8,37.8-15.7,54.4-26.1c8.4-5.3,15.2-11.4,19.7-20.6c3.7-0.7,14.8-0.2,19.1-0.1c5.7,0.2,11.5,1.1,17.3,1.2c5,0.1,12.1,1.1,16.8,2
	c5.4,1,10.4,1.7,15.6,3.2c15.7,4.5,15.4,10.2,11,20.9c-1.8,4.3-4,8.5-6.1,12.6c-8.4,16.4-19.4,50.1-26,68.2c-3.3,9-7.6,21-4.4,31.2
	c3.4,11.1,18,15.8,19.3,17.8c-4.7,0.5-10.2,0.6-14.9,0.8c-17.7,0.8-21.6,0.1-37.9-1.5c-2.5-0.2-4.1-1-6.6-1.3
	c-8.6-1.1-17-4.9-22.6-9.4c-6.4-5.1-8.9-12.1-7-23.2c2-11.9,12.1-34.2,16.8-46.9c3-8,17.9-40,17.1-46.2c-3.4-0.4-8.4,3.4-11,5
	c-3.4,2.1-6.1,3.9-9.4,6c-21,13.3-46.2,24.2-69.7,32.5c-6.8,2.4-23.5,8.5-29.4,9.9c-3.5,0.8-8.3,2.3-12,3.5
	c-6.7,2.2-13.8,3.1-19.1,4.8c-10.2,3.1-48.7,9.1-60.3,9.5c-10.5,0.3-19.6,1.2-30.5,1c-18.5-0.3-25.4-2.8-41.3-5.8
	c-6-1.1-24.5-7.2-29.8-9.4c-8.6-3.6-18.4-7.8-26.4-12.5c-20.9-12.3-17.6-11.5-31.9-23c-6.4-5.1-5.7-1.5-13.6,10.6
	c-9.1,13.9-33.5,51.5-39,63.2c-12.6,27,6.1,19.3,9.2,23.6c-8.2,3.4-72.6,17.1-77.5,10.8c-5-8.2,36.2-62.3,41.5-68.8l24.1-31.2
	c4.3-5.8,8-10.2,12.2-15.5c14.1-18.3,13.2-15.9,5.4-21.5c-10.7-7.7-14.5-13.9-30.7-20.8c-3.1-1.3-4.4-1.6-7.9-2.5
	C80.8,223,77.3,222.7,75.2,221.4L75.2,221.4z"/>
<path class="st1" d="M253.6,93.6c-11.8,1.8-18.5,13.5-15.9,27.3c1.5,8.2,5.1,16.4,12.3,20.4c11.4,6.4,27.6-3.2,24.7-25.7
	C273.3,105.1,265.6,91.8,253.6,93.6L253.6,93.6L253.6,93.6z"/>
<path class="st1" d="M405.1,194.1c34.8,0,61.3,32,78.1,19.6c8.2-6.1,5.2-17.4-1.8-22.8c-3.2-2.4-18.6-7.7-23.9-9.8
	c-3.8-1.5-8.4-3.1-12.3-4.5c-4.4-1.7-8.3-3.3-12.5-4.8c-9.7-3.6-13.9-7.5-26.9-5.5c-5.1,0.8-10.1,1.4-15.2,1.8
	c-8.3,0.7-8.3,1.3-18.8,1.3c-4.7,0-4.6-0.2-4-5.1c1.1-8.7,8.2-26.6,12-34.8c3.6-7.5,4.4-9.4,11.7-9.3c11,0,42.5,16,51.6,15.2
	c10-0.9,16.8-20.3,2.9-26.1c-9-3.8-33.7-8.9-44.2-12l-9.5-1.9c-15.5-4.2-22.4-6.1-29.7,8c-5.6,10.7-14.4,35.3-19.6,47.5
	c-4,9.2-24.9-8.1-28.6-11.3c-12.1-10.4-10.3-16.9-3.3-31.9c3-6.4,5.1-10.6,4.1-18.9c-0.6-5.2-4.9-13-6.9-17.1
	c-5.1-10.4-16.5-49.2-29.4-33.6c-4.6,5.5-1.9,11.9,0.9,17.5c11.7,24,17.5,30.8,7.9,53.7c-17,40.4-25.3,36.1-35.1,84.5
	c-3.8,18.7-8.1,18.9,2.6,36.4c3,5,16,26.1,18.6,29.2c4.6,5.3,12.5,5.7,15.3-0.9c2.9-6.8-1.4-12.4-4.1-17.2
	c-14.4-25-22.1-18.1-10.2-50.1c1-2.8,2-5.9,3.4-8.4c1.6-3,3-4.6,7.3-4.2c3.4,0.3,12.3,5.8,15.9,7.9c11,6.2,19.7,10,29.4,18.5
	c2.5,2.1,3.8,3.2,7.2,4.6c7.5,3,18.7-8.3,35.7-10.5L405.1,194.1L405.1,194.1L405.1,194.1L405.1,194.1z"/>
<g class="st2">
	<path class="st3" d="M617.1,376.5c-8.4,0-15.2-2.8-20.3-8.5c-5.1-5.6-7.7-13.1-7.7-22.4s2.6-16.7,7.7-22.4
		c5.1-5.6,11.9-8.5,20.3-8.5c8.3,0,15,2.4,20.1,7.2c5.1,4.8,7.7,11.2,7.8,19.1v9.5h-43.3c0.7,4.7,2.7,8.1,5.9,10.2
		c3.2,2.1,7.9,3.1,14.1,3.1c1.8,0,3.5-0.1,5.2-0.3c1.7-0.2,3-0.4,4.1-0.7c1.1-0.3,2.3-0.7,3.6-1.2c1.3-0.5,2.3-1,2.9-1.3
		c0.6-0.3,1.6-0.8,2.8-1.5c1.3-0.7,2.1-1.2,2.6-1.4v13.2c-4.6,2.2-8.7,3.7-12.2,4.5C627.4,376.1,622.8,376.5,617.1,376.5z
		 M601.5,342.7l31-0.9c-0.2-5.1-1.5-8.7-4-10.9c-2.5-2.2-6.3-3.3-11.4-3.3c-5,0-8.7,1.2-11.2,3.5C603.4,333.4,602,337.3,601.5,342.7
		z"/>
	<path class="st3" d="M657.5,374.7v-57.9h43.9v13.8h-30.7v44.1H657.5z"/>
	<path class="st3" d="M724.4,376.5c-11.5,0-17.3-5.1-17.3-15.3c0-3.9,1.2-7.1,3.5-9.8c2.4-2.7,6-4.7,11-6.2c5-1.5,9-2.5,11.9-3
		c2.9-0.5,7.3-1.1,13.2-1.7c0.9-0.1,1.5-0.2,1.9-0.2c-0.1-4.5-1.1-7.7-3.2-9.6c-2.1-1.9-5.5-2.8-10.2-2.8c-6.9,0-14.3,2.1-22.2,6.4
		v-13.2c9-4.2,17.7-6.3,25.9-6.3c15.3,0,22.9,9,22.9,27.1v32.7h-13l2.5-20.7h-0.8C747.8,369,739.1,376.5,724.4,376.5z M729.7,364.9
		c5,0,9.4-1.4,13.1-4.3c3.7-2.9,5.6-6.8,5.7-11.9c-0.7,0.1-2.4,0.2-4.8,0.5c-2.5,0.2-4.3,0.4-5.5,0.6c-1.2,0.2-2.8,0.4-5,0.8
		s-3.8,0.7-4.9,1.2c-1.1,0.4-2.4,0.9-3.7,1.6c-1.3,0.6-2.2,1.4-2.8,2.3c-0.6,0.9-0.9,2-0.9,3.1c0,1.9,0.8,3.5,2.4,4.6
		C724.8,364.4,726.9,364.9,729.7,364.9z"/>
	<path class="st3" d="M793.3,374.7v-44.1h-24.2v-13.8h61.6v13.8h-24.1v44.1H793.3z"/>
	<path class="st3" d="M877.6,314.9c6.7,0,12.4,2.9,17,8.7c4.6,5.8,6.9,13.3,6.9,22.5c0,9-2.3,16.3-7,21.9
		c-4.6,5.6-10.4,8.5-17.2,8.5c-6,0-11.3-1.8-15.8-5.4c-4.5-3.6-7.3-8.7-8.4-15.2h-0.4v41.9h-13.2v-81.1h13.6l-2,18.9h1.1
		c1.1-6.6,4-11.8,8.7-15.4C865.8,316.7,871.3,314.9,877.6,314.9z M872.1,327.6c-4.6,0-8.5,1.7-11.7,5c-3.2,3.4-4.9,7.8-4.9,13.3
		c0,5.4,1.6,9.8,4.9,13c3.2,3.3,7.2,4.9,11.7,4.9c4.9,0,8.9-1.6,11.9-4.9s4.6-7.6,4.6-13.1c0-5.6-1.5-10-4.6-13.3
		C881,329.3,877,327.6,872.1,327.6z"/>
	<path class="st3" d="M927,376.5c-11.5,0-17.3-5.1-17.3-15.3c0-3.9,1.2-7.1,3.5-9.8c2.4-2.7,6-4.7,11-6.2c5-1.5,9-2.5,11.9-3
		c2.9-0.5,7.3-1.1,13.2-1.7c0.9-0.1,1.5-0.2,1.9-0.2c-0.1-4.5-1.1-7.7-3.2-9.6c-2.1-1.9-5.5-2.8-10.2-2.8c-6.9,0-14.3,2.1-22.2,6.4
		v-13.2c9-4.2,17.7-6.3,25.9-6.3c15.3,0,22.9,9,22.9,27.1v32.7h-13l2.5-20.7H953C950.4,369,941.7,376.5,927,376.5z M932.3,364.9
		c5,0,9.4-1.4,13.1-4.3c3.7-2.9,5.6-6.8,5.7-11.9c-0.7,0.1-2.4,0.2-4.8,0.5c-2.5,0.2-4.3,0.4-5.5,0.6c-1.2,0.2-2.8,0.4-5,0.8
		s-3.8,0.7-4.9,1.2c-1.1,0.4-2.4,0.9-3.7,1.6c-1.3,0.6-2.2,1.4-2.8,2.3c-0.6,0.9-0.9,2-0.9,3.1c0,1.9,0.8,3.5,2.4,4.6
		C927.4,364.4,929.5,364.9,932.3,364.9z"/>
	<path class="st3" d="M977,374.7v-57.9h14l23.2,37.3l23.2-37.3h14v57.9h-13.2v-35.5l-23,35.5h-2l-23-35.9v35.9H977z"/>
	<path class="st3" d="M1068,374.7v-57.9h57.1v57.9h-13.2v-43.8h-30.7v43.8H1068z"/>
</g>
<g>
	<path d="M624,376.3c-6.1,0-11.6-1.4-16.3-4.1c-4.8-2.8-8.5-6.6-11.3-11.5c-2.8-4.9-4.1-10.6-4.1-17.1c0-6.5,1.3-12.1,3.9-17
		c2.6-4.9,6.2-8.7,10.8-11.4c4.6-2.7,9.8-4.1,15.7-4.1c5.9,0,11,1.6,15.3,4.7c4.3,3.1,7.6,7.5,9.9,13.2c2.3,5.7,3.5,12.4,3.5,20.2
		h-47.4v-11.9h39.7l-5.9,4.4c-0.2-3.7-1-6.9-2.3-9.5c-1.3-2.7-3-4.7-5.1-6c-2.2-1.4-4.7-2.1-7.7-2.1c-3.2,0-5.9,0.8-8.2,2.3
		c-2.3,1.5-4.2,3.7-5.5,6.4s-2,5.9-2,9.5c0,4.4,0.8,8.1,2.5,11.2c1.6,3.1,4,5.5,7,7.1c3,1.7,6.7,2.5,11,2.5c3.9,0,7.9-0.7,11.9-2.1
		c4-1.4,7.5-3.3,10.7-5.8V367c-3.3,2.9-7.3,5.2-11.8,6.8C633.6,375.5,628.9,376.3,624,376.3z"/>
	<path d="M703.9,312.7v13.4h-34.6l6.7-8.1v56.6h-14.5v-61.9H703.9z"/>
	<path d="M730.5,334.9c7.8-0.3,13.8,0.4,18,2c4.2,1.6,6.6,2.9,7,3.8c0.4,0.9,0.6,5.9,0.6,14.9c0,1.8-0.6,3.9-1.8,6.3
		c-1.2,2.4-2.9,4.7-5.2,6.9c-2.2,2.2-4.9,4-8.1,5.5c-3.2,1.5-6.7,2.2-10.5,2.2c-4.2,0-8-0.8-11.4-2.5s-6-4.1-8-7.1
		c-1.9-3.1-2.9-6.8-2.9-11.1c0-4.3,1-8,3-11c2-3.1,4.6-5.4,8-7C722.5,335.9,726.3,335,730.5,334.9z M751.4,339.8
		c0-4.8-1.5-8.5-4.4-11.2c-2.9-2.7-7.4-4-13.4-4c-3.5,0-7,0.5-10.6,1.5c-3.6,1-7.1,2.6-10.4,4.8v-13.1c3.8-2.4,7.7-4.1,11.7-5.2
		c4-1.1,8.2-1.6,12.6-1.6c5.9,0,11,1.1,15.2,3.2c4.3,2.1,7.6,5.3,10,9.5c2.4,4.2,3.6,9.3,3.6,15.4v35.4h-14.3L751.4,339.8z
		 M738.3,346c-6.2,0-10.5,0.8-12.8,2.5c-2.3,1.7-3.5,3.8-3.5,6.4c0,2.7,1.1,4.9,3.5,6.5c2.3,1.7,5.5,2.5,9.5,2.5
		c4.8,0,8.7-1.6,11.8-4.7c3.1-3.2,4.6-6.8,4.6-11C748.9,346.8,744.5,346,738.3,346z"/>
	<path d="M773,312.7h56v13.4h-56V312.7z M793.7,318.7h14.5v55.9h-14.5V318.7z"/>
	<path d="M837.1,312.7h14.5v20.1l-0.6,2.4v14.4l0.6,4.4v38.7h-14.5V312.7z M846.5,343.7c1-6.6,2.8-12.4,5.4-17.2
		c2.6-4.9,5.8-8.6,9.7-11.3c3.9-2.7,8.3-4,13.1-4c5,0,9.5,1.4,13.4,4.1c3.9,2.7,6.9,6.5,9,11.4c2.1,4.9,3.2,10.6,3.2,17.1
		c0,6.5-1.1,12.2-3.2,17.1c-2.2,4.9-5.2,8.7-9,11.4c-3.9,2.7-8.3,4.1-13.4,4.1c-4.8,0-9.2-1.4-13.1-4.1c-3.9-2.7-7.1-6.5-9.7-11.4
		C849.4,356,847.6,350.2,846.5,343.7z M885.8,343.7c0-3.7-0.7-7-2-9.9c-1.3-2.9-3.1-5.1-5.3-6.7c-2.2-1.6-4.8-2.4-7.7-2.4
		c-2.9,0-5.7,0.8-8.2,2.4c-2.6,1.6-4.8,3.8-6.8,6.7c-2,2.9-3.5,6.2-4.7,9.9c1.2,3.7,2.7,7,4.7,9.9c2,2.9,4.2,5.1,6.8,6.7
		c2.6,1.6,5.3,2.4,8.2,2.4c2.9,0,5.5-0.8,7.7-2.4c2.2-1.6,4-3.8,5.3-6.7C885.1,350.7,885.8,347.4,885.8,343.7z"/>
	<path d="M929.2,334.9c7.8-0.3,13.8,0.4,18,2c4.2,1.6,6.6,2.9,7,3.8c0.4,0.9,0.6,5.9,0.6,14.9c0,1.8-0.6,3.9-1.8,6.3
		c-1.2,2.4-2.9,4.7-5.2,6.9c-2.2,2.2-4.9,4-8.1,5.5c-3.2,1.5-6.7,2.2-10.5,2.2c-4.2,0-8-0.8-11.4-2.5s-6-4.1-8-7.1
		c-1.9-3.1-2.9-6.8-2.9-11.1c0-4.3,1-8,3-11c2-3.1,4.6-5.4,8-7C921.3,335.9,925,335,929.2,334.9z M950.1,339.8
		c0-4.8-1.5-8.5-4.4-11.2c-2.9-2.7-7.4-4-13.4-4c-3.5,0-7,0.5-10.6,1.5c-3.6,1-7.1,2.6-10.4,4.8v-13.1c3.8-2.4,7.7-4.1,11.7-5.2
		c4-1.1,8.2-1.6,12.6-1.6c5.9,0,11,1.1,15.2,3.2c4.3,2.1,7.6,5.3,10,9.5c2.4,4.2,3.6,9.3,3.6,15.4v35.4h-14.3L950.1,339.8z
		 M937.1,346c-6.2,0-10.5,0.8-12.8,2.5c-2.3,1.7-3.5,3.8-3.5,6.4c0,2.7,1.1,4.9,3.5,6.5c2.3,1.7,5.5,2.5,9.5,2.5
		c4.8,0,8.7-1.6,11.8-4.7c3.1-3.2,4.6-6.8,4.6-11C947.6,346.8,943.3,346,937.1,346z"/>
	<path d="M976.4,374.7v-61.9h21.7l19.4,53h-4.8l19.2-53h21.7v61.9h-13.6V319h3l-21.1,55.7h-13.7l-21.2-55.5l3.1-0.2v55.7H976.4z"/>
	<path d="M1123.8,312.7v61.9h-14.5V318l6.7,8h-41.9l6.7-8v56.7h-14.5v-61.9H1123.8z"/>
</g>
</svg>
